<?xml version="1.0" encoding="UTF-8"?>
<!DOCTYPE svg PUBLIC "-//W3C//DTD SVG 1.1//EN" "http://www.w3.org/Graphics/SVG/1.1/DTD/svg11.dtd">
<!-- Creator: CorelDRAW -->
<svg xmlns="http://www.w3.org/2000/svg" xml:space="preserve" width="1937px" height="1937px" style="shape-rendering:geometricPrecision; text-rendering:geometricPrecision; image-rendering:optimizeQuality; fill-rule:evenodd; clip-rule:evenodd"
viewBox="0 0 1937 1937"
 version="1.1"
 xmlns:xlink="http://www.w3.org/1999/xlink">
 <defs>
  <style type="text/css">
   <![CDATA[
    .fil0 {fill:#FFE9D5}
   ]]>
  </style>
 </defs>
 <g id="Layer_x0020_1">
  <metadata id="CorelCorpID_0Corel-Layer"/>
  <g id="_169162152">
   <g>
    <path id="_169163064" class="fil0" d="M970.331 120.721c467.521,0 847.974,380.452 847.974,847.974 0,467.522 -380.453,847.974 -847.974,847.974 -467.521,0 -847.974,-380.453 -847.974,-847.974 0,-467.521 380.453,-847.974 847.974,-847.974m0 -121.138c-535.188,0 -969.112,433.923 -969.112,969.112 0,535.188 433.925,969.112 969.112,969.112 535.187,0 969.112,-433.925 969.112,-969.112 0,-535.187 -433.923,-969.112 -969.112,-969.112l0 0zm540.277 1293.14l-5.44368 -16.5625c-12.7771,-38.0904 -54.8915,-77.8402 -93.6929,-88.4878l-143.26 -39.1569c-38.8026,-10.5283 -94.1665,3.66849 -122.671,32.1778l-51.8171 51.8171c-188.333,-50.9892 -336.09,-198.743 -386.959,-387.076l51.8171 -51.8171c28.3924,-28.3924 42.5892,-83.7564 32.0609,-122.676l-39.0459 -143.264c-10.5271,-38.8038 -50.5144,-80.9182 -88.6048,-93.6929l-16.3263 -5.44486c-38.212,-12.7771 -92.748,0.116929 -121.14,28.6298l-77.6052 77.6052c-13.8401,13.7232 -22.7137,53.1163 -22.7137,53.2368 -2.60314,246.303 93.9327,483.492 268.069,657.747 173.665,173.665 410.029,270.084 655.499,267.949 1.30275,0 41.8805,-8.635 55.7206,-22.4786l77.6052 -77.6052c28.3924,-28.2731 41.1648,-82.8091 28.5093,-120.901z"/>
   </g>
   <g>
   </g>
   <g>
   </g>
   <g>
   </g>
   <g>
   </g>
   <g>
   </g>
   <g>
   </g>
   <g>
   </g>
   <g>
   </g>
   <g>
   </g>
   <g>
   </g>
   <g>
   </g>
   <g>
   </g>
   <g>
   </g>
   <g>
   </g>
   <g>
   </g>
  </g>
 </g>
</svg>
