<?xml version="1.0" encoding="UTF-8"?>
<!DOCTYPE svg PUBLIC "-//W3C//DTD SVG 1.1//EN" "http://www.w3.org/Graphics/SVG/1.1/DTD/svg11.dtd">
<!-- Creator: CorelDRAW -->
<svg xmlns="http://www.w3.org/2000/svg" xml:space="preserve" width="1630px" height="1630px" style="shape-rendering:geometricPrecision; text-rendering:geometricPrecision; image-rendering:optimizeQuality; fill-rule:evenodd; clip-rule:evenodd"
viewBox="0 0 1630 1630"
 version="1.1"
 xmlns:xlink="http://www.w3.org/1999/xlink">
 <defs>
  <style type="text/css">
   <![CDATA[
    .fil0 {fill:#FFE9D5}
   ]]>
  </style>
 </defs>
 <g id="Layer_x0020_1">
  <metadata id="CorelCorpID_0Corel-Layer"/>
  <g id="_170190808">
   <g>
    <path id="_170874088" class="fil0" d="M819.41 2.37177c-453.14,0 -820.491,367.351 -820.491,820.492 0,406.413 295.804,742.993 683.65,808.169l0 -636.992 -197.927 -0.00118116 0 -229.228 197.927 0.00118116 0 -169.024c0,-196.116 119.781,-302.989 294.756,-302.989 83.8021,0 155.82,6.24479 176.726,8.99571l0 204.993 -121.357 0.059058c-95.1365,0 -113.479,45.1994 -113.479,111.55l0 146.297 227.006 0 -29.6081 229.228 -197.398 0 0 642.591c405.955,-49.4091 720.677,-394.562 720.677,-813.886 0,-452.905 -367.352,-820.256 -820.483,-820.256z"/>
   </g>
   <g>
   </g>
   <g>
   </g>
   <g>
   </g>
   <g>
   </g>
   <g>
   </g>
   <g>
   </g>
   <g>
   </g>
   <g>
   </g>
   <g>
   </g>
   <g>
   </g>
   <g>
   </g>
   <g>
   </g>
   <g>
   </g>
   <g>
   </g>
   <g>
   </g>
  </g>
 </g>
</svg>
