<?xml version="1.0" encoding="UTF-8"?>
<!DOCTYPE svg PUBLIC "-//W3C//DTD SVG 1.1//EN" "http://www.w3.org/Graphics/SVG/1.1/DTD/svg11.dtd">
<!-- Creator: CorelDRAW -->
<svg xmlns="http://www.w3.org/2000/svg" xml:space="preserve" width="500px" height="500px" style="shape-rendering:geometricPrecision; text-rendering:geometricPrecision; image-rendering:optimizeQuality; fill-rule:evenodd; clip-rule:evenodd"
viewBox="0 0 500 500">
 <defs>
  <style type="text/css">
   <![CDATA[
    .fil0 {fill:#FFE9D5}
   ]]>
  </style>
 </defs>
 <g id="Layer_x0020_1">
  <metadata id="CorelCorpID_0Corel-Layer"/>
  <path class="fil0" d="M222.201 0.996364c-112.969,12.6024 -204.72,102.296 -219.578,214.99 -21.0509,159.696 109.508,295.558 267.65,283.557 58.173,-4.41485 112.625,-30.4112 155.29,-70.2012l3.66455 -3.41636c4.21545,-3.93061 4.44545,-10.5342 0.514545,-14.7485l-14.2391 -15.2682c-3.93061,-4.21576 -10.5333,-4.44576 -14.7488,-0.514545l-7.63333 7.11879c-47.457,44.2503 -112.605,64.1585 -178.327,52.9661 -93.1479,-15.8642 -164.755,-94.9455 -172.028,-189.155 -9.61788,-124.579 90.8724,-228.684 214.252,-225.098 113.764,3.30727 202.515,100.388 202.515,214.2l0 15.283c0,24.3927 -21.0197,43.9564 -45.9024,41.5382 -21.6848,-2.10939 -37.5782,-21.5997 -37.5782,-43.3882l0 -92.0652c0,-5.76394 -4.67212,-10.4355 -10.4352,-10.4355l-20.87 0c-4.19,0 -7.74909,2.50424 -9.40939,6.06818 -20.9988,-22.9048 -51.057,-37.3736 -84.5067,-37.3736 -63.2936,0 -114.786,51.4924 -114.786,114.786 0,63.2936 51.4924,114.787 114.786,114.787 39.8703,0 75.0261,-20.4552 95.6103,-51.3994 15.4982,25.9003 44.2933,42.9685 77.07,40.7721 44.3194,-2.96909 77.7624,-41.8179 77.7624,-86.2364l0 -17.9233c0,-147.525 -128.224,-265.671 -279.072,-248.842zm28.6297 321.888c-40.2733,0 -73.0461,-32.7727 -73.0461,-73.0461 0,-40.2733 32.7727,-73.0461 73.0461,-73.0461 40.2733,0 73.0461,32.7727 73.0461,73.0461 0,40.2733 -32.7727,73.0461 -73.0461,73.0461z"/>
 </g>
</svg>
