<?xml version="1.0" encoding="UTF-8"?>
<!DOCTYPE svg PUBLIC "-//W3C//DTD SVG 1.1//EN" "http://www.w3.org/Graphics/SVG/1.1/DTD/svg11.dtd">
<!-- Creator: CorelDRAW -->
<svg xmlns="http://www.w3.org/2000/svg" xml:space="preserve" width="1713px" height="969px" style="shape-rendering:geometricPrecision; text-rendering:geometricPrecision; image-rendering:optimizeQuality; fill-rule:evenodd; clip-rule:evenodd"
viewBox="0 0 1713 968.731"
 version="1.1"
 xmlns:xlink="http://www.w3.org/1999/xlink">
 <defs>
  <style type="text/css">
   <![CDATA[
    .fil0 {fill:#FFE9D5}
   ]]>
  </style>
 </defs>
 <g id="Layer_x0020_1">
  <metadata id="CorelCorpID_0Corel-Layer"/>
  <g id="_169169112">
   <g>
    <path id="_169166112" class="fil0" d="M1704.59 877.616c-2.07568,-4.44671 -4.01078,-8.13616 -5.80766,-11.0908 -29.7377,-53.2483 -86.5668,-118.607 -170.453,-196.092l-1.77207 -1.77443 -0.887216 -0.870677 -0.896667 -0.891941 -0.901392 0c-38.0711,-36.0817 -62.1807,-60.3425 -72.2768,-72.7623 -18.4732,-23.6607 -22.6116,-47.6108 -12.5155,-71.8775 7.13317,-18.3338 33.9269,-57.0547 80.3184,-116.212 24.4026,-31.3526 43.7288,-56.4806 58.001,-75.411 102.934,-136.049 147.56,-222.984 133.869,-260.845l-5.31739 -8.84735c-3.57249,-5.32684 -12.7932,-10.1988 -27.6502,-14.642 -14.8913,-4.4349 -33.9233,-5.16853 -57.1327,-2.21272l-257.01 1.76498c-4.16318,-1.46727 -10.1091,-1.33023 -17.8542,0.447743 -7.73567,1.77679 -11.6059,2.66874 -11.6059,2.66874l-4.4727 2.22217 -3.55123 2.66992c-2.97589,1.76498 -6.24832,4.86965 -9.82081,9.30691 -3.55359,4.4219 -6.52712,9.6117 -8.90169,15.5257 -27.9822,71.5703 -59.7955,138.112 -95.5003,199.622 -22.015,36.6795 -42.2319,68.4657 -60.6957,95.381 -18.439,26.9059 -33.9079,46.7271 -46.3916,59.434 -12.5025,12.7187 -23.7871,22.9093 -33.9209,30.6072 -10.1185,7.70023 -17.8412,10.9549 -23.1893,9.76292 -5.3611,-1.18965 -10.4091,-2.37103 -15.1878,-3.55123 -8.324,-5.32684 -15.0189,-12.5699 -20.0669,-21.7374 -5.07048,-9.1675 -8.48348,-20.706 -10.2685,-34.6061 -1.77561,-13.9096 -2.82586,-25.8734 -3.12593,-35.9328 -0.277624,-10.0464 -0.150035,-24.2573 0.45365,-42.5923 0.619043,-18.3433 0.896667,-30.756 0.896667,-37.2619 0,-22.4805 0.440654,-46.8771 1.32551,-73.1994 0.900211,-26.3199 1.62794,-47.1748 2.23753,-62.5387 0.606048,-15.3792 0.887216,-31.6503 0.887216,-48.804 0,-17.1536 -1.05025,-30.6072 -3.12593,-40.3701 -2.05087,-9.75229 -5.19807,-19.2175 -9.34589,-28.3945 -4.17263,-9.16632 -10.2804,-16.2581 -18.2948,-21.292 -8.02984,-5.02795 -18.0137,-9.01747 -29.8948,-11.9827 -31.5357,-7.09418 -71.692,-10.9325 -120.488,-11.5291 -110.654,-1.1802 -181.755,5.92344 -213.287,21.3026 -12.4931,6.49759 -23.7989,15.3768 -33.9079,26.607 -10.7116,13.0176 -12.206,20.1213 -4.4727,21.2908 35.7025,5.31621 60.9769,18.0349 75.8516,38.1456l5.3611 10.656c4.17027,7.68842 8.33345,21.2991 12.5002,40.8143 4.16082,19.5152 6.84491,41.1025 8.02747,64.7514 2.96999,43.1853 2.96999,80.153 0,110.906 -2.97826,30.7643 -5.7923,54.7144 -8.47758,71.868 -2.68528,17.1536 -6.69842,31.0537 -12.0501,41.6968 -5.3611,10.6466 -8.92768,17.1536 -10.7151,19.5152 -1.78506,2.36276 -3.27242,3.85012 -4.4538,4.4349 -7.73331,2.94636 -15.7761,4.44671 -24.099,4.44671 -8.33581,0 -18.4449,-4.14546 -30.3414,-12.4293 -11.8929,-8.28501 -24.2372,-19.6652 -37.0303,-34.1584 -12.7932,-14.4967 -27.2225,-34.755 -43.2916,-60.7772 -16.0573,-26.0222 -32.7171,-56.7783 -49.9712,-92.2657l-14.2758 -25.7363c-8.92414,-16.557 -21.1148,-40.6654 -36.5838,-72.304 -15.4784,-31.6503 -29.16,-62.267 -41.0529,-91.8404 -4.75387,-12.421 -11.8965,-21.878 -21.4149,-28.385l-4.4668 -2.66874c-2.96999,-2.36276 -7.73567,-4.86965 -14.2758,-7.54193 -6.54839,-2.66992 -13.3815,-4.58375 -20.5265,-5.76041l-244.523 1.76498c-24.9874,0 -41.9413,5.62809 -50.8678,16.8677l-3.57249 5.31739c-1.7827,2.95581 -2.68291,7.68605 -2.68291,14.1966 0,6.50586 1.78506,14.4932 5.35756,23.9489 35.6954,83.4066 74.5143,163.845 116.456,241.329 41.9413,77.4843 78.3869,139.899 109.317,187.19 30.9356,47.3249 62.4678,91.9905 94.5978,133.973 32.13,41.998 53.3972,68.9122 63.8028,80.7366 10.4186,11.8457 18.6008,20.7025 24.5491,26.6165l22.3151 21.2896c14.2782,14.199 35.2453,31.2038 62.912,51.0143 27.6726,19.8224 58.307,39.3387 91.9219,58.5763 33.6209,19.208 72.7328,34.8826 117.358,47.0059 44.6195,12.1351 88.0482,17.0036 130.293,14.655l102.629 0c20.8147,-1.78625 36.5838,-8.29446 47.3012,-19.5247l3.55123 -4.44671c2.38757,-3.53114 4.62274,-9.01629 6.68543,-16.3952 2.0875,-7.39189 3.12593,-15.5375 3.12593,-24.3967 -0.609592,-25.4292 1.33732,-48.3479 5.78876,-68.7516 4.44789,-20.3977 9.51837,-35.7757 15.1878,-46.134 5.66708,-10.3489 12.0619,-19.0805 19.1797,-26.1593 7.13317,-7.09418 12.2155,-11.3932 15.1973,-12.8723 2.9629,-1.48736 5.3292,-2.49744 7.11427,-3.10348 14.2782,-4.73024 31.0821,-0.150035 50.4366,13.7631 19.3392,13.9001 37.4781,31.0632 54.4439,51.4609 16.9575,20.4154 37.3304,43.3224 61.1234,68.7504 23.8083,25.4386 44.6266,44.3478 62.4678,56.7877l17.8412 10.6466c11.9154,7.10363 27.3844,13.6119 46.427,19.5247 19.0072,5.91044 35.6611,7.39071 49.9617,4.4349l228.45 -3.54178c22.5962,0 40.1787,-3.72016 52.6494,-11.1002 12.4966,-7.39307 19.9204,-15.5375 22.3151,-24.3967 2.38757,-8.86861 2.51634,-18.9316 0.45365,-30.1807 -2.11585,-11.2243 -4.20098,-19.071 -6.27549,-23.5047z"/>
   </g>
   <g>
   </g>
   <g>
   </g>
   <g>
   </g>
   <g>
   </g>
   <g>
   </g>
   <g>
   </g>
   <g>
   </g>
   <g>
   </g>
   <g>
   </g>
   <g>
   </g>
   <g>
   </g>
   <g>
   </g>
   <g>
   </g>
   <g>
   </g>
   <g>
   </g>
  </g>
 </g>
</svg>
